{
  "title": "Ex Machina 2015 MULTI DVDRip x264 AC3",
  "uid": 11927800,
  "size": 2236439493,
  "categoryP": "video",
  "categoryS": "movies",
  "magnet": "?xt=urn:btih:9444f3eac36f689a87e8348db8338f283d35a202&amp;dn=Ex+Machina+2015+MULTI+DVDRip+x264+AC3&amp;tr=udp%3A%2F%2Ftracker.openbittorrent.com%3A80&amp;tr=udp%3A%2F%2Fopen.demonii.com%3A1337&amp;tr=udp%3A%2F%2Ftracker.coppersurfer.tk%3A6969&amp;tr=udp%3A%2F%2Fexodus.desync.com%3A6969",
  "seeders": 669,
  "leechers": 108,
  "uploader": "OvoJeKraj",
  "files": 5,
  "time": 1431741676,
  "description": "Audio Tracks:\nEnglish, Japanese, Brazilian Portuguese, Spanish, Thai\n\nSubtitles:\nEnglish, Japanese, Brazilian Portuguese, Spanish, Thai, Chinese, Korean\n\nVideo\nID : 1\nFormat : AVC\nFormat/Info : Advanced Video Codec\nFormat profile : &lt;a class=&quot;__cf_email__&quot; href=&quot;/cdn-cgi/l/email-protection&quot; data-cfemail=&quot;eda5848a85ada1dec3dc&quot;&gt;[email&amp;#160;protected]&lt;/a&gt;&lt;script cf-hash='f9e31' type=&quot;text/javascript&quot;&gt;\n/* &lt;![CDATA[ */!function(){try{var t=&quot;currentScript&quot;in document?document.currentScript:function(){for(var t=document.getElementsByTagName(&quot;script&quot;),e=t.length;e--;)if(t[e].getAttribute(&quot;cf-hash&quot;))return t[e]}();if(t&amp;&amp;t.previousSibling){var e,r,n,i,c=t.previousSibling,a=c.getAttribute(&quot;data-cfemail&quot;);if(a){for(e=&quot;&quot;,r=parseInt(a.substr(0,2),16),n=2;a.length-n;n+=2)i=parseInt(a.substr(n,2),16)^r,e+=String.fromCharCode(i);e=document.createTextNode(e),c.parentNode.replaceChild(e,c)}}}catch(u){}}();/* ]]&gt; */&lt;/script&gt;\nFormat settings, CABAC : Yes\nFormat settings, ReFrames : 5 frames\nCodec ID : V_MPEG4/ISO/AVC\nDuration : 1h 48mn\nBit rate : 720 Kbps\nWidth : 720 pixels\nHeight : 300 pixels\nDisplay aspect ratio : 2.40:1\nFrame rate mode : Constant\nFrame rate : 23.976 fps\nColor space : YUV\nChroma subsampling : 4:2:0\nBit depth : 8 bits\nScan type : Progressive\nBits/(Pixel*Frame) : 0.139\nStream size : 557 MiB (26%)\nTitle : Ex.Machina.2015.MULTI.DVDRip.x264.AC3-RARBG\nWriting library : x264 core 144 r2525 40bb568\nEncoding settings : cabac=1 / ref=5 / deblock=1:-2:-2 / analyse=0x3:0x113 / me=umh / subme=8 / psy=1 / psy_rd=1.00:0.00 / mixed_ref=1 / me_range=16 / chroma_me=1 / trellis=1 / 8x8dct=1 / cqm=0 / deadzone=21,11 / fast_pskip=1 / chroma_qp_offset=-2 / threads=12 / lookahead_threads=2 / sliced_threads=0 / nr=0 / decimate=1 / interlaced=0 / bluray_compat=0 / constrained_intra=0 / bframes=3 / b_pyramid=2 / b_adapt=2 / b_bias=0 / direct=3 / weightb=1 / open_gop=0 / weightp=2 / keyint=240 / keyint_min=24 / scenecut=40 / intra_refresh=0 / rc_lookahead=50 / rc=crf / mbtree=1 / crf=16.0 / qcomp=0.60 / qpmin=0 / qpmax=69 / qpstep=4 / vbv_maxrate=17500 / vbv_bufsize=17500 / crf_max=0.0 / nal_hrd=none / filler=0 / ip_ratio=1.40 / aq=1:1.00\nDefault : Yes\nForced : No\nColor primaries : BT.601 NTSC\nTransfer characteristics : BT.709\nMatrix coefficients : BT.601\nColor range : Limited\n\nAudio #1\nID : 2\nFormat : AC-3\nFormat/Info : Audio Coding 3\nMode extension : CM (complete main)\nFormat settings, Endianness : Big\nCodec ID : A_AC3\nDuration : 1h 48mn\nBit rate mode : Constant\nBit rate : 448 Kbps\nChannel(s) : 6 channels\nChannel positions : Front: L C R, Side: L R, LFE\nSampling rate : 48.0 KHz\nBit depth : 16 bits\nCompression mode : Lossy\nStream size : 346 MiB (16%)\nTitle : Ex.Machina.2015.MULTI.DVDRip.x264.AC3-RARBG\nLanguage : English\nDefault : Yes\nForced : No\n\nAudio #2\nID : 3\nFormat : AC-3\nFormat/Info : Audio Coding 3\nMode extension : CM (complete main)\nFormat settings, Endianness : Big\nCodec ID : A_AC3\nDuration : 1h 48mn\nBit rate mode : Constant\nBit rate : 384 Kbps\nChannel(s) : 6 channels\nChannel positions : Front: L C R, Side: L R, LFE\nSampling rate : 48.0 KHz\nBit depth : 16 bits\nCompression mode : Lossy\nStream size : 297 MiB (14%)\nTitle : Ex.Machina.2015.MULTI.DVDRip.x264.AC3-RARBG\nLanguage : Japanese\nDefault : No\nForced : No\n\nAudio #3\nID : 4\nFormat : AC-3\nFormat/Info : Audio Coding 3\nMode extension : CM (complete main)\nFormat settings, Endianness : Big\nCodec ID : A_AC3\nDuration : 1h 48mn\nBit rate mode : Constant\nBit rate : 384 Kbps\nChannel(s) : 6 channels\nChannel positions : Front: L C R, Side: L R, LFE\nSampling rate : 48.0 KHz\nBit depth : 16 bits\nCompression mode : Lossy\nStream size : 297 MiB (14%)\nTitle : Ex.Machina.2015.MULTI.DVDRip.x264.AC3-RARBG\nLanguage : Portuguese\nDefault : No\nForced : No\n\nAudio #4\nID : 5\nFormat : AC-3\nFormat/Info : Audio Coding 3\nMode extension : CM (complete main)\nFormat settings, Endianness : Big\nCodec ID : A_AC3\nDuration : 1h 48mn\nBit rate mode : Constant\nBit rate : 384 Kbps\nChannel(s) : 6 channels\nChannel positions : Front: L C R, Side: L R, LFE\nSampling rate : 48.0 KHz\nBit depth : 16 bits\nCompression mode : Lossy\nStream size : 297 MiB (14%)\nTitle : Ex.Machina.2015.MULTI.DVDRip.x264.AC3-RARBG\nLanguage : Spanish\nDefault : No\nForced : No\n\nAudio #5\nID : 6\nFormat : AC-3\nFormat/Info : Audio Coding 3\nMode extension : CM (complete main)\nFormat settings, Endianness : Big\nCodec ID : A_AC3\nDuration : 1h 48mn\nBit rate mode : Constant\nBit rate : 384 Kbps\nChannel(s) : 6 channels\nChannel positions : Front: L C R, Side: L R, LFE\nSampling rate : 48.0 KHz\nBit depth : 16 bits\nCompression mode : Lossy\nStream size : 297 MiB (14%)\nTitle : Ex.Machina.2015.MULTI.DVDRip.x264.AC3-RARBG\nLanguage : Thai\nDefault : No\nForced : No",
  "parsed": {
    "xt": "urn:btih:9444f3eac36f689a87e8348db8338f283d35a202",
    "dn": "Ex Machina 2015 MULTI DVDRip x264 AC3",
    "tr": [
      "udp://exodus.desync.com:6969",
      "udp://open.demonii.com:1337",
      "udp://tracker.coppersurfer.tk:6969",
      "udp://tracker.openbittorrent.com:80"
    ],
    "infoHash": "9444f3eac36f689a87e8348db8338f283d35a202",
    "infoHashBuffer": {
      "type": "Buffer",
      "data": [
        148,
        68,
        243,
        234,
        195,
        111,
        104,
        154,
        135,
        232,
        52,
        141,
        184,
        51,
        143,
        40,
        61,
        53,
        162,
        2
      ]
    },
    "name": "Ex Machina 2015 MULTI DVDRip x264 AC3",
    "announce": [
      "udp://exodus.desync.com:6969",
      "udp://open.demonii.com:1337",
      "udp://tracker.coppersurfer.tk:6969",
      "udp://tracker.openbittorrent.com:80"
    ],
    "urlList": []
  },
  "previous": 777,
  "peers": 93,
  "last_updated": "2016-12-25T08:12:11.178Z"
}